<svg width="262" height="119" xmlns="http://www.w3.org/2000/svg" xml:space="preserve" viewBox="0 0 99.45831 42.42538"><path fill="#040606" d="M99.45832 39.04239a1.12 1.12 0 0 0-1.12-1.119 1.118 1.118 0 1 0 1.12 1.12zm-.05 0a1.0685 1.0685 0 1 1-2.137-.004 1.068 1.068 0 0 1 2.136.004zm-.417.537c.012 0 .004-.034 0-.034-.186 0-.392-.296-.474-.518.132-.054.206-.159.206-.268 0-.168-.148-.256-.431-.256-.175 0-.358.007-.424.026-.008.004-.004.04 0 .04a.396.396 0 0 1 .062-.008c.074 0 .113.038.113.232v.471c0 .21-.023.241-.167.257-.004 0-.008.035 0 .035a2.54 2.54 0 0 1 .486 0c.011 0 .008-.035 0-.035-.148-.012-.164-.055-.164-.257v-.183a.55.55 0 0 0 .187-.008c.07.253.268.506.606.506zm-.727-.549c-.03 0-.042 0-.066-.003v-.253a.83.83 0 0 1 .016-.217h.055c.186 0 .29.062.29.244 0 .152-.08.23-.295.23zm-2.397.354c.014 0 .023-.057-.005-.052a3.1 3.1 0 0 1-.457.033 3.81 3.81 0 0 1-.565-.033c-.023-.005-.014.052-.005.052.42.046.439.097.439.76v1.578l-2.175-2.357c-.266 0-.438-.01-.63-.033-.023-.005-.014.052-.005.052.225.028.523.307.523.523v1.637c0 .662-.023.714-.438.756-.01.004-.024.06.004.055a3.97 3.97 0 0 1 1.022 0c.028.005.014-.05.005-.055-.434-.034-.438-.122-.438-.756v-1.593l2.267 2.441c.019.024.056.02.056.006a9.717 9.717 0 0 1-.037-.854v-1.4c0-.635.005-.723.439-.76zm-4.801 1.409c0-.794-.653-1.521-1.61-1.521-.99 0-1.69.854-1.69 1.619 0 .798.654 1.526 1.606 1.526.994 0 1.694-.854 1.694-1.624zm-.378.159c0 .854-.513 1.358-1.208 1.358-.659 0-1.335-.537-1.335-1.573 0-.854.513-1.358 1.208-1.358.654 0 1.335.536 1.335 1.573zm-4.136-20.303c.058 0 .081-.231-.011-.208-.371.047-.94.07-1.438.07-.671 0-1.425 0-1.912-.07-.128-.023-.07.208-.012.208 1.23.092 1.299.185 1.299 1.681 0 .255-.023.592-.07.743-.058.186-.36.58-1.6.58-1.67 0-3.282-1.311-3.282-3.861 0-2.1 1.31-3.34 3.05-3.34 1.6 0 2.62 1.02 2.69 1.936 0 .035.185.07.196-.012.058-.718 0-1.518-.08-1.577-.232-.174-1.414-.694-2.527-.694-2.563 0-4.394 2.18-4.394 4.116 0 2.005 1.564 3.79 4.231 3.79 1.125 0 1.96-.312 2.979-.857-.174-.14-.186-.418-.186-.766 0-1.473 0-1.659 1.067-1.74zm-8.116 3.166c-1.299 0-3.117-2.006-3.744-3.676 1.217-.498 1.622-1.45 1.622-2.099 0-1.287-1.39-1.807-3.083-1.807-1.275 0-2.434.046-2.91.195-.104.036-.034.22.024.209.162-.024.313-.047.44-.047.661 0 .685.406.685 1.718v3.49c0 1.739-.047 1.727-1.09 1.831-.035 0-.082.244.011.22.487-.058 1.032-.07 1.704-.07.509 0 1.078.024 1.437.07.116.012.059-.22.024-.22-1.08-.08-1.08-.162-1.08-1.832v-1.369c.163.023.221.023.453.023.244 0 .615-.023.917-.069.51 1.832 1.866 3.652 4.578 3.652.105 0 .047-.219.012-.219zm-5.518-3.687c-.198 0-.28.011-.441 0v-1.926c0-.846.023-1.38.08-1.623.198-.012.337-.024.523-.024 1.149 0 2.192.407 2.192 1.984 0 .963-.614 1.59-2.354 1.59zm-9.25-8.373h13.333v-.224h-13.333zm12.396-10.901c0-.34.03-.59.08-.818.02-.05-.17-.04-.17-.02-.08.34-.17.35-1.628.35h-3.026c-1.45 0-1.51-.02-1.59-.35-.039-.01-.199-.02-.18.02.03.138.05.33.05.508 0 .29-.009.63-.05.83-.009.03.13.03.17.02.12-.46.33-.68 1.6-.68h1.099v4.317c0 1.5-.04 1.49-.92 1.58-.05.009-.08.208 0 .188.43-.05.89-.06 1.478-.06.42 0 .92.02 1.23.06.1.01.069-.188.019-.188-.93-.07-.93-.14-.93-1.58v-4.317h1.05c1.309 0 1.468.23 1.559.669 0 .02.19.02.18-.01-.02-.12-.02-.36-.02-.52zm-7.383-.42c.05 0 .08-.179-.02-.169-.31.04-.6.06-1.02.06-.588 0-.838-.01-1.268-.06-.1-.01-.06.16-.01.17.89.099.98.24.98 1.508v2.398c0 1.38-.71 2.11-2.07 2.11-1.029 0-2.148-.69-2.148-2.28v-2.138c0-1.44 0-1.519.929-1.599.03 0 .09-.179-.02-.169-.3.04-.81.06-1.238.06-.579 0-1.039-.01-1.469-.06-.1-.01-.07.17 0 .17.88.099.92.099.92 1.598v2.339c0 1.609 1.238 2.567 2.767 2.567 1.78 0 2.697-1.138 2.697-2.497v-2.5c0-1.208.04-1.428.97-1.508zm-7.109 9.421a4.118 4.118 0 0 1-.861.024c-.068.256-.203.568-.342.885l-.723 1.65-1.18-2.525c-.413 0-.62 0-.861-.034-.039-.009-.024.082 0 .087.365.039.539.193.534.524l-.034 1.687c-.014.67-.034.712-.462.76-.024.005-.038.101 0 .092.207-.03.322-.03.602-.03.207 0 .337.01.486.03.039.01.025-.092.01-.092-.448-.038-.448-.125-.438-.76l.029-1.571 1.146 2.408c.02.038.077.03.086.005l1.123-2.548.028 1.706c.015.712-.019.722-.394.76-.024.005-.039.101 0 .092.212-.03.39-.03.669-.03.207 0 .486.01.64.03.039.01.02-.092.005-.092-.506-.043-.491-.067-.506-.76l-.029-1.446c-.014-.693-.019-.721.482-.765.014 0 .038-.091-.01-.087zm-1.174-9.001c0-.34.03-.59.08-.818.02-.05-.17-.04-.17-.02-.08.34-.17.35-1.628.35h-3.027c-1.449 0-1.509-.02-1.589-.35-.04-.01-.2-.02-.18.02.03.138.05.33.05.508 0 .29-.01.63-.05.83-.01.03.13.03.17.02.12-.46.33-.68 1.599-.68h1.1v4.317c0 1.5-.04 1.49-.92 1.58-.05.009-.08.208 0 .188.43-.05.89-.06 1.478-.06.42 0 .92.02 1.228.06.1.01.07-.188.02-.188-.928-.07-.928-.14-.928-1.58v-4.317h1.049c1.308 0 1.468.23 1.558.669 0 .02.19.02.18-.01-.02-.12-.02-.36-.02-.52zm-6.724 10.528c0-.852-.587-1.517-1.738-1.517-.173 0-.621.02-.741.02-.284 0-.621-.005-.823-.03-.049-.004-.02.082-.006.082.43.049.454.049.454.771v1.445c0 .722-.025.717-.454.76-.014 0-.043.097.006.092.202-.024.496-.029.78-.029.114 0 .553.019.722.019 1.078 0 1.8-.736 1.8-1.613zm-.433.154c0 .834-.54 1.31-1.233 1.31-.698 0-.77-.048-.77-.52v-1.623c0-.36.01-.52.038-.67.082-.008.183-.023.516-.023.89 0 1.449.515 1.449 1.526zm-1.606-6.505v-2.998c0-1.44 0-1.519.91-1.599.05 0 .09-.179-.01-.169-.31.04-.81.06-1.229.06-.589 0-1.048-.01-1.478-.06-.1-.01-.04.17-.01.17.89.1.94.1.94 1.598v2.998c0 1.5-.05 1.49-.94 1.58-.03 0-.09.198.01.188.43-.05.889-.06 1.478-.06.42 0 .919.02 1.229.06.1.01.06-.188.01-.188-.91-.07-.91-.14-.91-1.58zm-3.037-4.177c0-.34.03-.59.08-.818.02-.05-.17-.04-.17-.02-.08.34-.17.35-1.629.35h-3.026c-1.449 0-1.509-.02-1.59-.35-.039-.01-.199-.02-.179.02.03.138.05.33.05.508 0 .29-.01.63-.05.83-.01.03.13.03.17.02.12-.46.33-.68 1.599-.68h1.099v4.317c0 1.5-.04 1.49-.92 1.58-.05.009-.08.208 0 .188.43-.05.89-.06 1.479-.06.42 0 .919.02 1.228.06.1.01.07-.188.02-.188-.929-.07-.929-.14-.929-1.58v-4.317h1.049c1.309 0 1.469.23 1.559.669 0 .02.19.02.18-.01-.02-.12-.02-.36-.02-.52zm-6.022 9.001c-.145.02-.39.03-.598.03-.279 0-.5-.006-.707-.03-.048-.004-.034.082 0 .082.424.049.443.049.443.771v1.127c0 .775.597 1.237 1.334 1.237.857 0 1.3-.549 1.3-1.204v-1.204c0-.582.019-.688.467-.727.024 0 .039-.086-.01-.082-.149.02-.289.03-.49.03-.285 0-.405-.006-.612-.03-.049-.004-.03.077-.005.082.428.049.472.116.472.727v1.156c0 .665-.342 1.016-.997 1.016-.496 0-1.036-.332-1.036-1.098v-1.03c0-.694 0-.732.448-.77.015 0 .043-.087-.01-.083zm.917 6.401c-.684.059-1.473.082-2.33.082-1.183 0-2.318-.023-3.165-.082-.116-.011-.046.209-.011.209 1.17.138 1.194.092 1.194 1.855v3.478c0 1.75-.023 1.704-1.194 1.831-.035 0-.093.232.011.22.847-.058 2.04-.07 3.21-.07.858 0 1.6.059 2.03.059.197 0 .266-.035.324-.243.07-.243.174-.788.22-1.078.012-.057-.208-.057-.208-.035-.174.766-.278.917-2.052.917h-.615c-.533 0-.719-.14-.719-1.647v-1.693h1.194c1.067 0 1.137.138 1.206.498.012.034.232.046.209-.011-.012-.094-.012-.326-.012-.453 0-.266.024-.544.07-.718-.023-.023-.209-.058-.22-.023-.07.301.023.395-1.253.395h-1.194v-1.485c0-.731.012-1.265.058-1.554h1.113c1.519 0 1.763.15 1.855.66.012.035.22.058.21 0-.013-.092-.013-.325-.013-.44 0-.244.012-.452.082-.672zm-5.438-14.812c0-.62.57-1.02 1.2-1.02.73 0 1.22.38 1.34 1.12 0 .03.199.039.199-.01 0-.67-.07-1.05-.15-1.09-.35-.19-.73-.319-1.31-.319-1.16 0-1.968.929-1.968 1.848 0 1.819 3.008 1.829 3.008 3.488 0 .8-.65 1.17-1.329 1.17-1.04 0-1.598-.67-1.67-1.69 0-.03-.178-.04-.178.01-.04.7-.11 1.28-.06 1.32.529.44 1.108.668 1.818.668 1.2 0 2.048-.928 2.048-2.028 0-1.909-2.948-1.879-2.948-3.467zm-.892 40.857c-.383-.028-.467-.181-.677-.755l-.84-2.255c-.01-.018-.047-.018-.056 0l-.984 2.255c-.23.536-.35.732-.663.755-.01.005-.019.06.004.056.192-.023.197-.032.462-.032.192 0 .3.013.44.032.022.005.013-.051 0-.056-.215-.018-.309-.05-.309-.163 0-.13.084-.313.201-.592l.163-.383h1.05l.14.383c.084.232.173.452.173.592 0 .13-.108.14-.332.163-.01.005-.018.06.005.056.192-.023.43-.032.695-.032.192 0 .383.013.523.032.028.005.014-.051.005-.056zm-1.242-1.231h-.975l.532-1.251zm-2.9-23.435c0-.72.662-1.183 1.393-1.183.847 0 1.415.44 1.554 1.3 0 .034.231.045.231-.013 0-.776-.08-1.217-.173-1.263-.406-.22-.846-.37-1.52-.37-1.345 0-2.284 1.076-2.284 2.144 0 2.11 3.491 2.122 3.491 4.047 0 .927-.754 1.356-1.543 1.356-1.206 0-1.854-.776-1.936-1.96 0-.034-.208-.045-.208.012-.046.812-.127 1.485-.07 1.531.615.51 1.287.776 2.11.776 1.392 0 2.376-1.077 2.376-2.353 0-2.215-3.42-2.18-3.42-4.024zm2.756-17.2c.07-.01.1-.18-.01-.17-.3.04-.58.06-1.009.06-.578 0-.818-.01-1.238-.06-.08-.019-.04.17-.01.17.9.1.94.208.94 1.598v3.298l-4.757-4.996c-.59 0-.979-.02-1.399-.07-.1-.01-.04.17-.01.17.47.059 1.12.64 1.12 1.088v3.508c0 1.39-.05 1.49-.94 1.58-.03 0-.09.198.01.188.42-.05.66-.06 1.248-.06.42 0 .69.02 1 .06.1.01.05-.188.02-.188-.93-.07-.93-.25-.93-1.58v-3.318l4.936 5.156c.06.06.18.03.18-.01-.05-.419-.07-1.328-.07-1.828v-2.998c0-1.329 0-1.519.919-1.599zm-9.952 4.596v-2.998c0-1.44 0-1.519.91-1.599.05 0 .09-.179-.01-.169-.31.04-.81.06-1.23.06-.588 0-1.048-.01-1.477-.06-.1-.01-.04.17-.01.17.89.1.94.1.94 1.598v2.998c0 1.5-.05 1.49-.94 1.58-.03 0-.09.198.01.188.43-.05.89-.06 1.478-.06.419 0 .918.02 1.228.06.1.01.06-.188.01-.188-.909-.07-.909-.14-.909-1.58zm10.004 6.501h-13.334v.224h13.334zm-14.145 8.642c0 2.006 1.68 3.837 4.139 3.837 2.574 0 4.382-2.145 4.382-4.08 0-1.995-1.692-3.826-4.162-3.826-2.563 0-4.359 2.144-4.359 4.069zm1.042-.383c0-2.1 1.299-3.34 3.05-3.34 1.647 0 3.386 1.323 3.386 3.873 0 2.1-1.31 3.328-3.061 3.328-1.658 0-3.375-1.31-3.375-3.861zm-4.81.348c1.217-.498 1.622-1.45 1.622-2.099 0-1.287-1.39-1.807-3.084-1.807-1.274 0-2.433.046-2.909.195-.104.036-.035.22.023.209.163-.024.313-.047.44-.047.662 0 .685.406.685 1.718v3.49c0 1.739-.046 1.727-1.09 1.831-.035 0-.081.244.011.22.487-.058 1.033-.07 1.704-.07.51 0 1.078.024 1.438.07.116.012.058-.22.023-.22-1.079-.08-1.079-.162-1.079-1.832v-1.369c.163.023.22.023.453.023.243 0 .615-.023.916-.069.51 1.832 1.867 3.652 4.58 3.652.104 0 .046-.219.01-.219-1.298 0-3.117-2.006-3.743-3.676zm-1.775-.01c-.197 0-.278.01-.44 0v-1.927c0-.846.022-1.38.08-1.623.198-.012.337-.024.522-.024 1.149 0 2.193.407 2.193 1.984 0 .963-.615 1.59-2.355 1.59zm-4.573 22.133c.028-.098.07-.312.09-.429 0-.015-.052-.015-.057-.01-.065.313-.107.383-.817.383h-.238c-.214 0-.298-.056-.298-.682v-.695h.485c.434 0 .458.066.485.215 0 .009.056.014.052 0a2.11 2.11 0 0 1-.01-.187c0-.107.014-.223.033-.294.005-.009-.051-.004-.056 0-.028.127.01.173-.504.173h-.485v-.616c0-.303.01-.523.027-.639h.449c.606 0 .7.07.737.28 0 .01.056.014.056 0a2.035 2.035 0 0 1-.01-.177c0-.099.01-.187.029-.252-.248.019-.556.032-.892.032-.462 0-.905-.009-1.236-.032-.028-.005-.014.051-.005.051.471.056.48.033.48.76v1.4c0 .723-.009.705-.48.756-.01.005-.023.06.005.056.33-.023.798-.032 1.255-.032.336 0 .625.023.793.023.07 0 .09-.01.112-.084zm-4.332.06c.192 0 .462.014.607.033.024.005.014-.051 0-.056-.485-.037-.476-.06-.476-.755v-1.4c0-.695-.01-.719.476-.76.014 0 .024-.057 0-.052a5.762 5.762 0 0 1-1.236 0c-.024-.005-.014.052 0 .052.359.041.396.046.396.76v.63h-1.75v-.63c0-.685.019-.728.397-.76.01 0 .023-.057-.005-.052-.14.019-.326.033-.522.033-.262 0-.514-.01-.71-.033-.023-.005-.014.052 0 .052.472.055.476.032.476.76v1.4c0 .723-.004.705-.476.756-.014.005-.023.06 0 .056.196-.023.448-.032.71-.032.196 0 .382.013.522.032.028.005.014-.051.005-.056-.378-.028-.397-.07-.397-.755v-.673h1.75v.673c0 .714-.037.718-.396.755-.014.005-.024.06 0 .056a4.88 4.88 0 0 1 .63-.032zm-4.316-2.73c0-.158.018-.28.042-.386.005-.014-.051-.005-.051 0-.038.163-.075.177-.752.177h-1.371c-.676 0-.7-.019-.732-.177 0-.005-.056-.014-.056 0 .014.07.023.158.023.242 0 .135-.004.294-.023.391-.005.01.051.006.051 0 .051-.219.15-.326.737-.326h.514v2.03c0 .72-.019.715-.434.756-.014.005-.023.06 0 .056a5.7 5.7 0 0 1 .671-.032c.192 0 .42.013.56.032.028.005.02-.051.005-.056-.434-.033-.439-.065-.439-.755v-2.03h.495c.607 0 .682.116.719.325 0 .006.056.01.056 0a2.015 2.015 0 0 1-.014-.247zm12.093 2.707c-.01.005-.018.06.005.056.191-.023.196-.032.462-.032.191 0 .299.013.439.032.023.005.013-.051 0-.056-.216-.018-.309-.05-.309-.163 0-.13.085-.313.201-.592l.163-.383h1.05l.14.383c.084.232.173.452.173.592 0 .13-.107.14-.331.163-.01.005-.02.06.004.056a5.98 5.98 0 0 1 .696-.032c.191 0 .382.013.523.032.028.005.014-.051.004-.056-.383-.028-.466-.181-.676-.755l-.84-2.255c-.01-.018-.047-.018-.057 0l-.984 2.255c-.229.536-.35.732-.663.755zm1.004-1.231.531-1.251.444 1.25zm4.768-1.746c-.499 0-.947.014-1.134.075-.022.01-.009.056.005.056.066-.01.121-.019.173-.019.266 0 .28.163.28.705v1.405c0 .718-.018.713-.439.755-.01.005-.019.06.005.056.191-.023.401-.032.667-.032.196 0 .425.013.565.032.028.005.014-.051.004-.056-.434-.033-.438-.065-.438-.755v-.565a2.01 2.01 0 0 0 .56-.023c.2.736.728 1.469 1.782 1.469.029 0 .015-.056.005-.056-.518 0-1.24-.821-1.484-1.502.476-.196.635-.575.635-.835 0-.51-.532-.71-1.186-.71zm-.06.098c.457 0 .873.163.873.812 0 .397-.243.658-.934.658-.084 0-.117 0-.191-.004v-.79c0-.354.014-.573.042-.667.08-.004.135-.01.21-.01zm2.882-.214c.014.07.024.158.024.242 0 .135-.005.294-.024.391-.004.01.051.006.051 0 .052-.219.15-.326.738-.326h.513v2.03c0 .72-.018.715-.434.756-.014.005-.023.06 0 .056.196-.023.406-.032.672-.032.191 0 .42.013.56.032.028.005.018-.051.005-.056-.435-.033-.44-.065-.44-.755v-2.03h.496c.606 0 .68.116.718.325 0 .006.056.01.056 0a2.022 2.022 0 0 1 .028-.633c.005-.014-.05-.005-.05 0-.038.163-.076.177-.752.177h-1.372c-.677 0-.7-.019-.733-.177 0-.005-.056-.014-.056 0zm4.475 3.149a5.48 5.48 0 0 1 .668-.032c.191 0 .424.013.564.032.023.005.015-.051 0-.056-.43-.033-.434-.065-.434-.755v-1.4c0-.69.005-.723.434-.76.015 0 .023-.057 0-.052a4.83 4.83 0 0 1-.564.033c-.266 0-.476-.01-.668-.033-.027-.005-.013.052-.004.052.415.046.439.041.439.76v1.4c0 .72-.024.715-.439.756-.01.005-.023.06.004.056zm3.252-2.487c0-.298.266-.49.565-.49.336 0 .565.186.62.536.005.01.057.01.057-.004 0-.303-.023-.476-.056-.495a1.104 1.104 0 0 0-.588-.144.873.873 0 0 0-.878.844c0 .85 1.364.854 1.364 1.63 0 .382-.3.564-.617.564-.48 0-.737-.322-.77-.808 0-.01-.056-.01-.056.005-.01.322-.051.58-.028.602.238.205.495.308.812.308.537 0 .915-.425.915-.929 0-.89-1.34-.877-1.34-1.62zm6.22-26.957c-.014 0-.034.101.005.092.202-.024.207-.03.491-.03.203 0 .313.01.462.03.039.01.03-.092.005-.092-.217-.019-.308-.038-.308-.149 0-.135.082-.322.207-.606l.169-.386h1.097l.145.386c.091.24.183.462.183.606 0 .13-.116.125-.337.15-.015 0-.034.1.004.09.203-.023.453-.028.737-.028.203 0 .405.01.554.029.048.005.029-.082.014-.087-.4-.029-.49-.188-.712-.77l-.89-2.326c-.01-.03-.073-.038-.093 0l-1.044 2.326c-.241.54-.361.741-.689.765zm1.089-1.27.543-1.234.448 1.233zm2.694 28.503v1.578l-2.175-2.357c-.266 0-.438-.01-.63-.033-.023-.005-.014.052-.005.052.224.028.523.307.523.523v1.637c0 .662-.023.714-.438.756-.01.004-.024.06.004.055a3.981 3.981 0 0 1 1.022 0c.028.005.015-.05.005-.055-.434-.034-.439-.122-.439-.756v-1.593l2.268 2.441c.02.024.056.02.056.006a9.725 9.725 0 0 1-.037-.854v-1.4c0-.635.005-.723.439-.76.014 0 .023-.057-.005-.052a3.865 3.865 0 0 1-1.022 0c-.023-.005-.014.052-.005.052.42.046.439.097.439.76zm2.085 1.363c-.01.322-.05.58-.028.602.238.205.495.308.812.308.537 0 .915-.425.915-.929 0-.89-1.34-.877-1.34-1.62 0-.297.267-.49.565-.49.336 0 .565.187.621.537.005.01.056.01.056-.004 0-.303-.023-.476-.056-.495a1.104 1.104 0 0 0-.588-.144.873.873 0 0 0-.878.844c0 .85 1.363.854 1.363 1.63 0 .382-.299.564-.616.564-.48 0-.737-.322-.77-.808 0-.01-.056-.01-.056.005zm2.575-30.8v1.445c0 .717-.028.722-.41.76-.013 0-.032.101.006.091a5.42 5.42 0 0 1 .664-.028c.212 0 .467.01.622.028.038.01.028-.09.004-.09-.467-.04-.467-.035-.467-.761v-.698h.332c.544 0 .602.043.636.226.005.029.106.029.091-.015-.014-.048-.014-.158-.014-.221 0-.13.02-.27.043-.357-.01-.009-.091-.018-.091-.009-.039.173-.044.24-.665.24h-.332v-.635c0-.304.005-.525.03-.645h.528c.737 0 .733.063.81.38.004.015.086.02.081-.014-.019-.12-.019-.332-.048-.443-.02-.072-.053-.1-.13-.1-.178 0-.486.023-.842.023a21.7 21.7 0 0 1-1.339-.034c-.038-.004-.024.083 0 .087.487.058.491.038.491.77zm-.638 5.56c-.115-.012-.046.196-.011.196.545.07 1.299.742 1.299 1.264v4.07c0 1.612-.059 1.728-1.09 1.832-.035 0-.104.231.011.22.487-.059.766-.07 1.449-.07.486 0 .799.023 1.159.07.116.011.058-.22.023-.22-1.078-.08-1.078-.29-1.078-1.831v-3.85l5.727 5.982c.07.069.209.034.209-.012-.058-.485-.082-1.541-.082-2.12v-3.48c0-1.542 0-1.763 1.067-1.855.081-.012.116-.208-.011-.196-.348.046-.673.07-1.171.07-.672 0-.95-.012-1.437-.07-.093-.023-.047.196-.012.196 1.044.116 1.09.244 1.09 1.856v3.825l-5.52-5.797c-.682 0-1.134-.023-1.622-.081zm6.692 24.526c0-.794-.653-1.521-1.61-1.521-.989 0-1.689.854-1.689 1.619 0 .798.653 1.526 1.605 1.526.994 0 1.694-.854 1.694-1.624zm-.378.159c0 .854-.513 1.358-1.209 1.358-.657 0-1.334-.537-1.334-1.573 0-.854.513-1.358 1.209-1.358.653 0 1.334.536 1.334 1.573zm3.07-1.587c-.461 0-.923-.009-1.26-.032-.023-.005-.013.051 0 .051.472.056.477.033.477.76v1.4c0 .715-.033.72-.397.756-.009.005-.018.06.005.056.191-.023.359-.032.625-.032.196 0 .443.013.588.032.024.005.014-.051 0-.056-.452-.037-.457-.033-.457-.755v-.692h.331c.523 0 .579.047.612.229.004.019.06.023.055-.005a1.56 1.56 0 0 1 .028-.568c0-.01-.055-.005-.055 0-.038.172-.038.247-.64.247h-.331v-.635c0-.303.01-.523.033-.639h.508c.71 0 .705.07.775.383 0 .009.056.009.051-.01-.019-.117-.019-.322-.046-.43-.014-.073-.042-.083-.108-.083-.168 0-.457.023-.793.023zm.532-27.233v-.703h.496c.443 0 .472.058.501.207.005.014.097.02.087-.005-.005-.038-.005-.134-.005-.188 0-.11.01-.226.029-.298-.01-.01-.087-.024-.091-.01-.03.126.009.164-.52.164h-.497v-.616c0-.304.005-.525.024-.645h.463c.63 0 .732.062.77.275.005.014.092.024.087 0-.005-.039-.005-.135-.005-.184a.88.88 0 0 1 .034-.279c-.285.024-.612.034-.968.034-.491 0-.963-.01-1.315-.034-.047-.005-.019.087-.004.087.486.058.496.038.496.77v1.445c0 .727-.01.708-.496.76-.015 0-.039.097.004.092.352-.024.848-.03 1.334-.03.357 0 .664.025.843.025.082 0 .11-.014.134-.101.03-.1.073-.327.092-.448.005-.024-.087-.024-.087-.014-.072.317-.115.38-.852.38h-.255c-.221 0-.299-.057-.299-.684zm1.945 11.647c.277 0 1.066.046 1.46.046 1.764 0 2.875-1.019 2.875-2.318 0-1.02-.914-1.785-2.19-1.844.858-.255 1.484-.962 1.484-1.623 0-1.148-1.09-1.75-2.412-1.75-.383 0-1.148.047-1.414.047-.684 0-1.02-.012-1.507-.07-.116-.012-.046.197-.011.197 1.031.115 1.09.115 1.09 1.855v3.479c0 1.739-.059 1.727-1.09 1.83-.035 0-.105.232.011.22.487-.058 1.032-.069 1.704-.069zm.381-5.472c0-.87.012-1.31.093-1.658a2.14 2.14 0 0 1 .464-.047c.998 0 1.705.406 1.705 1.577 0 1.09-.58 1.473-1.983 1.473-.058 0-.058.232 0 .22 1.647-.174 2.645.685 2.645 1.82 0 1.37-.673 1.81-1.96 1.81-.882 0-.964-.14-.964-1.647zm2.911 24.017c.336 0 .625.023.794.023.07 0 .088-.01.112-.084.028-.098.07-.312.088-.429 0-.015-.051-.015-.056-.01-.065.313-.107.383-.816.383h-.238c-.215 0-.3-.056-.3-.682v-.695h.486c.434 0 .457.066.486.215 0 .009.055.014.05 0a2.161 2.161 0 0 1-.009-.187c0-.107.014-.223.033-.294.005-.009-.05-.004-.056 0-.028.127.01.173-.504.173h-.485v-.616c0-.303.01-.523.028-.639h.448c.607 0 .7.07.737.28 0 .01.056.014.056 0a2.035 2.035 0 0 1-.01-.177c0-.099.01-.187.029-.252-.248.019-.555.032-.891.032-.462 0-.906-.009-1.237-.032-.028-.005-.014.051-.004.051.47.056.48.033.48.76v1.4c0 .723-.01.705-.48.756-.01.005-.024.06.004.056a19.94 19.94 0 0 1 1.255-.032zm3.549-24.005v3.478c0 1.75-.024 1.704-1.194 1.831-.035 0-.093.232.012.22.846-.058 2.039-.07 3.21-.07.857 0 1.6.059 2.029.059.196 0 .266-.035.324-.243.07-.243.174-.788.22-1.078.012-.057-.209-.057-.209-.035-.173.766-.278.917-2.052.917h-.614c-.534 0-.719-.14-.719-1.647v-1.693h1.194c1.067 0 1.136.138 1.206.498.012.034.232.046.209-.011-.012-.094-.012-.326-.012-.453a3.1 3.1 0 0 1 .07-.718c-.023-.023-.21-.058-.22-.023-.07.301.023.395-1.253.395h-1.194v-1.485c0-.731.012-1.265.058-1.554h1.113c1.52 0 1.762.15 1.855.66.012.035.22.058.21 0-.012-.092-.012-.325-.012-.44 0-.244.011-.452.08-.672-.684.059-1.472.082-2.33.082-1.182 0-2.317-.023-3.163-.082-.117-.011-.047.209-.012.209 1.17.138 1.194.092 1.194 1.855zm-.253 24.005c.112 0 .523.018.682.018 1.004 0 1.676-.704 1.676-1.544 0-.817-.542-1.451-1.616-1.451-.163 0-.588.018-.7.018a7.5 7.5 0 0 1-.774-.032c-.028-.005-.014.05-.005.05.415.047.439.043.439.762v1.4c0 .719-.024.714-.439.756-.01.004-.023.06.005.056a6.77 6.77 0 0 1 .732-.033zm.066-2.184c0-.355.014-.51.042-.663.08-.01.168-.023.495-.023.85 0 1.381.504 1.381 1.493 0 .817-.513 1.289-1.176 1.289-.677 0-.742-.056-.742-.523zm6.57 1.129v-1.167c0-.578.024-.681.458-.718.014 0 .023-.057-.005-.052a4.01 4.01 0 0 1-1.041 0c-.028-.005-.019.052-.004.052.415.046.457.112.457.718v1.12c0 .654-.327 1.003-.952 1.003-.476 0-.994-.326-.994-1.083v-.998c0-.69.005-.723.439-.76.009 0 .023-.057-.005-.052a5.665 5.665 0 0 1-1.232 0c-.023-.005-.014.052 0 .052.415.046.434.041.434.76v1.092c0 .742.555 1.18 1.241 1.18.798 0 1.204-.522 1.204-1.147zm1.815-.364c0 .798.648 1.512 1.685 1.512.555 0 .835-.121.998-.247.038-.028.075-.355.089-.64 0-.018-.056-.018-.056-.009-.038.486-.509.784-.99.784-.657 0-1.34-.532-1.34-1.572 0-.855.519-1.354 1.21-1.354.686 0 1.022.416 1.101.784 0 .01.056.01.051-.005-.01-.284-.046-.616-.084-.64-.093-.074-.536-.246-.961-.246-.994 0-1.703.867-1.703 1.633zm4.099 1.395c-.01.005-.019.06.004.056.192-.023.196-.032.462-.032.192 0 .3.013.439.032.023.005.014-.051 0-.056-.215-.018-.308-.05-.308-.163 0-.13.084-.313.2-.592l.164-.383h1.05l.14.383c.084.232.173.452.173.592 0 .13-.108.14-.332.163-.009.005-.018.06.005.056.191-.023.43-.032.695-.032.192 0 .383.013.523.032.028.005.014-.051.005-.056-.383-.028-.467-.181-.677-.755l-.84-2.255c-.009-.018-.047-.018-.056 0l-.985 2.255c-.228.536-.35.732-.662.755zm1.003-1.231.532-1.251.443 1.25zm3.187-1.862c.014.07.024.158.024.242 0 .135-.005.294-.024.391-.004.01.052.006.052 0 .052-.219.15-.326.737-.326h.513v2.03c0 .72-.018.715-.433.756-.015.005-.024.06 0 .056.195-.023.406-.032.671-.032.192 0 .42.013.56.032.028.005.02-.051.005-.056-.434-.033-.439-.065-.439-.755v-2.03h.495c.607 0 .682.116.72.325 0 .006.055.01.055 0a1.99 1.99 0 0 1 .028-.633c.005-.014-.052-.005-.052 0-.037.163-.074.177-.75.177h-1.372c-.676 0-.7-.019-.732-.177 0-.005-.057-.014-.057 0zm4.91.937v1.4c0 .72-.023.715-.439.756-.01.005-.023.06.005.056.191-.023.401-.032.667-.032.192 0 .425.013.565.032.023.005.014-.051 0-.056-.43-.033-.434-.065-.434-.755v-1.401c0-.69.004-.723.434-.76.014 0 .023-.057 0-.052-.14.019-.373.033-.565.033a5.54 5.54 0 0 1-.667-.033c-.028-.005-.014.052-.005.052.416.046.439.041.439.76"/></svg>
